<?xml version="1.0" encoding="UTF-8" standalone="no"?>
<!-- Created with Inkscape (http://www.inkscape.org/) -->
<svg
   xmlns:dc="http://purl.org/dc/elements/1.1/"
   xmlns:cc="http://creativecommons.org/ns#"
   xmlns:rdf="http://www.w3.org/1999/02/22-rdf-syntax-ns#"
   xmlns:svg="http://www.w3.org/2000/svg"
   xmlns="http://www.w3.org/2000/svg"
   xmlns:xlink="http://www.w3.org/1999/xlink"
   xmlns:sodipodi="http://sodipodi.sourceforge.net/DTD/sodipodi-0.dtd"
   xmlns:inkscape="http://www.inkscape.org/namespaces/inkscape"
   width="1052.3622"
   height="744.09448"
   id="svg2"
   sodipodi:version="0.32"
   inkscape:version="0.46"
   version="1.0"
   sodipodi:docname="jgs_wordpress_themes_logo01.svg"
   inkscape:output_extension="org.inkscape.output.svg.inkscape"
   inkscape:export-filename="C:\Program Files\Apache Software Foundation\Apache2.2\htdocs\wordpress\wp-content\themes\cool-orange\images\jgs_wordpress_themes_logo01.png"
   inkscape:export-xdpi="144"
   inkscape:export-ydpi="144">
  <defs
     id="defs4">
    <linearGradient
       inkscape:collect="always"
       id="linearGradient3233">
      <stop
         style="stop-color:#8c98a1;stop-opacity:1;"
         offset="0"
         id="stop3235" />
      <stop
         style="stop-color:#8c98a1;stop-opacity:0;"
         offset="1"
         id="stop3237" />
    </linearGradient>
    <linearGradient
       inkscape:collect="always"
       id="linearGradient3225">
      <stop
         style="stop-color:#cccccc;stop-opacity:1;"
         offset="0"
         id="stop3227" />
      <stop
         style="stop-color:#cccccc;stop-opacity:0;"
         offset="1"
         id="stop3229" />
    </linearGradient>
    <linearGradient
       inkscape:collect="always"
       id="linearGradient3212">
      <stop
         style="stop-color:#ffffff;stop-opacity:1;"
         offset="0"
         id="stop3214" />
      <stop
         style="stop-color:#ffffff;stop-opacity:0;"
         offset="1"
         id="stop3216" />
    </linearGradient>
    <linearGradient
       id="linearGradient3192">
      <stop
         style="stop-color:#000000;stop-opacity:0.247"
         offset="0"
         id="stop3194" />
      <stop
         id="stop3202"
         offset="0.13641879"
         style="stop-color:#000000;stop-opacity:0" />
      <stop
         id="stop3200"
         offset="0.85696948"
         style="stop-color:#000000;stop-opacity:0" />
      <stop
         style="stop-color:#000000;stop-opacity:0.25"
         offset="1"
         id="stop3196" />
    </linearGradient>
    <inkscape:perspective
       sodipodi:type="inkscape:persp3d"
       inkscape:vp_x="0 : 526.18109 : 1"
       inkscape:vp_y="0 : 1000 : 0"
       inkscape:vp_z="744.09448 : 526.18109 : 1"
       inkscape:persp3d-origin="372.04724 : 350.78739 : 1"
       id="perspective10" />
    <linearGradient
       inkscape:collect="always"
       xlink:href="#linearGradient3192"
       id="linearGradient3198"
       x1="527.93542"
       y1="310.66019"
       x2="527.93542"
       y2="341.78799"
       gradientUnits="userSpaceOnUse" />
    <linearGradient
       inkscape:collect="always"
       xlink:href="#linearGradient3212"
       id="linearGradient3218"
       x1="404.68439"
       y1="324.875"
       x2="404.68439"
       y2="341.78839"
       gradientUnits="userSpaceOnUse" />
    <linearGradient
       inkscape:collect="always"
       xlink:href="#linearGradient3225"
       id="linearGradient3231"
       x1="504.79327"
       y1="-336.58102"
       x2="504.79327"
       y2="-370.05405"
       gradientUnits="userSpaceOnUse" />
    <linearGradient
       inkscape:collect="always"
       xlink:href="#linearGradient3233"
       id="linearGradient3239"
       x1="547.3161"
       y1="-336.58102"
       x2="547.3161"
       y2="-370.05405"
       gradientUnits="userSpaceOnUse" />
  </defs>
  <sodipodi:namedview
     id="base"
     pagecolor="#ffffff"
     bordercolor="#666666"
     borderopacity="1.0"
     gridtolerance="10000"
     guidetolerance="10"
     objecttolerance="10"
     inkscape:pageopacity="0.0"
     inkscape:pageshadow="2"
     inkscape:zoom="1"
     inkscape:cx="502.35838"
     inkscape:cy="439.5939"
     inkscape:document-units="px"
     inkscape:current-layer="layer1"
     showgrid="false"
     inkscape:window-width="1024"
     inkscape:window-height="712"
     inkscape:window-x="-4"
     inkscape:window-y="-4" />
  <metadata
     id="metadata7">
    <rdf:RDF>
      <cc:Work
         rdf:about="">
        <dc:format>image/svg+xml</dc:format>
        <dc:type
           rdf:resource="http://purl.org/dc/dcmitype/StillImage" />
      </cc:Work>
    </rdf:RDF>
  </metadata>
  <g
     inkscape:label="bounding box"
     inkscape:groupmode="layer"
     id="layer1">
    <rect
       style="opacity:1;fill:none;fill-opacity:1;fill-rule:nonzero;stroke:#cccccc;stroke-width:1;stroke-linecap:round;stroke-linejoin:round;marker:none;marker-start:none;marker-mid:none;marker-end:none;stroke-miterlimit:4;stroke-dasharray:none;stroke-dashoffset:0;stroke-opacity:1;visibility:visible;display:inline;overflow:visible;enable-background:accumulate"
       id="rect2403"
       width="728"
       height="119"
       x="140"
       y="279.38019" />
  </g>
  <g
     inkscape:groupmode="layer"
     id="layer6"
     inkscape:label="reflection"
     sodipodi:insensitive="true">
    <text
       xml:space="preserve"
       style="font-size:42.52278519px;font-style:normal;font-variant:normal;font-weight:900;font-stretch:normal;text-align:start;line-height:125%;writing-mode:lr-tb;text-anchor:start;opacity:0.35;fill:url(#linearGradient3231);fill-opacity:1;stroke:url(#linearGradient3239);stroke-width:2;stroke-linecap:butt;stroke-linejoin:miter;stroke-miterlimit:4;stroke-dasharray:none;stroke-opacity:1;font-family:Arial Black;-inkscape-font-specification:Arial Black Heavy"
       x="195.25769"
       y="-338.10858"
       id="text3221"
       sodipodi:linespacing="125%"
       transform="scale(0.9877057,-1.0124473)"><tspan
         sodipodi:role="line"
         id="tspan3223"
         x="195.25769"
         y="-338.10858"
         style="fill:url(#linearGradient3231);fill-opacity:1;stroke:url(#linearGradient3239)">JG'S WORDPRESS THEMES</tspan></text>
  </g>
  <g
     inkscape:groupmode="layer"
     id="layer2"
     inkscape:label="lowered opacity text"
     sodipodi:insensitive="true">
    <text
       xml:space="preserve"
       style="font-size:42px;font-style:normal;font-variant:normal;font-weight:900;font-stretch:normal;text-align:start;line-height:125%;writing-mode:lr-tb;text-anchor:start;opacity:0.75;fill:#cccccc;fill-opacity:1;stroke:none;stroke-width:2;stroke-linecap:butt;stroke-linejoin:miter;stroke-miterlimit:4;stroke-dasharray:none;stroke-opacity:1;font-family:Arial Black;-inkscape-font-specification:Arial Black Heavy"
       x="192.85715"
       y="341.23734"
       id="text3176"
       sodipodi:linespacing="125%"><tspan
         sodipodi:role="line"
         id="tspan3178"
         x="192.85715"
         y="341.23734">JG'S WORDPRESS THEMES</tspan></text>
  </g>
  <g
     inkscape:groupmode="layer"
     id="layer4"
     inkscape:label="shadows"
     sodipodi:insensitive="true">
    <text
       xml:space="preserve"
       style="font-size:42px;font-style:normal;font-variant:normal;font-weight:900;font-stretch:normal;text-align:start;line-height:125%;writing-mode:lr-tb;text-anchor:start;opacity:1;fill:url(#linearGradient3198);fill-opacity:1;stroke:none;stroke-width:2;stroke-linecap:butt;stroke-linejoin:miter;stroke-miterlimit:4;stroke-dasharray:none;stroke-opacity:1;font-family:Arial Black;-inkscape-font-specification:Arial Black Heavy"
       x="192.85715"
       y="341.23734"
       id="text3186"
       sodipodi:linespacing="125%"><tspan
         sodipodi:role="line"
         id="tspan3188"
         x="192.85715"
         y="341.23734"
         style="fill:url(#linearGradient3198);fill-opacity:1">JG'S WORDPRESS THEMES</tspan></text>
  </g>
  <g
     inkscape:groupmode="layer"
     id="layer5"
     inkscape:label="highlight"
     sodipodi:insensitive="true">
    <path
       style="font-size:42px;font-style:normal;font-variant:normal;font-weight:900;font-stretch:normal;text-align:start;line-height:125%;writing-mode:lr-tb;text-anchor:start;opacity:1;fill:url(#linearGradient3218);fill-opacity:1;stroke:none;stroke-width:2;stroke-linecap:butt;stroke-linejoin:miter;stroke-miterlimit:4;stroke-dasharray:none;stroke-opacity:1;font-family:Arial Black;-inkscape-font-specification:Arial Black Heavy"
       d="M 208.4375,324.875 L 208.4375,329.71875 C 208.43748,331.55079 208.20409,332.85255 207.71875,333.625 C 207.23338,334.39747 206.47655,334.78126 205.4375,334.78125 C 204.78124,334.78126 204.26171,334.63477 203.90625,334.375 C 203.38671,333.97852 203.03124,333.48634 202.8125,332.84375 C 202.59374,332.20118 202.48241,331.20118 202.46875,329.875 L 193.5625,331.09375 C 193.72656,333.41798 194.27832,335.3584 195.1875,336.9375 C 196.09668,338.5166 197.39453,339.71094 199.0625,340.53125 C 200.73046,341.35156 203.05858,341.78125 206.09375,341.78125 C 208.96483,341.78125 211.31736,341.15039 213.15625,339.90625 C 214.9951,338.66211 216.23533,337.13477 216.84375,335.34375 C 217.45212,333.55274 217.74998,330.9629 217.75,327.53125 L 217.75,324.875 L 208.4375,324.875 z M 222.875,324.875 C 222.8492,325.31177 222.84375,325.76569 222.84375,326.21875 C 222.84375,329.33595 223.45019,332.09376 224.6875,334.5 C 225.9248,336.90625 227.68847,338.72071 229.9375,339.9375 C 232.18651,341.1543 235.08788,341.75 238.65625,341.75 C 241.55467,341.75 244.04392,341.42676 246.15625,340.75 C 248.26853,340.07324 250.72067,338.7793 253.46875,336.90625 L 253.46875,324.875 L 239.09375,324.875 L 239.09375,330.34375 L 245.3125,330.34375 L 245.3125,333.1875 C 244.09568,333.91212 243.00584,334.41798 242.0625,334.71875 C 241.11912,335.01954 240.13279,335.15626 239.09375,335.15625 C 236.90623,335.15626 235.22362,334.45704 234,333.0625 C 232.77636,331.66798 232.15624,329.34767 232.15625,326.09375 C 232.15625,325.66471 232.16375,325.27171 232.1875,324.875 L 222.875,324.875 z M 272.375,324.875 C 272.51036,325.00917 272.63339,325.12178 272.78125,325.25 C 274.51757,326.76759 277.42577,327.99025 281.5,328.90625 C 283.98826,329.45314 285.59764,330.04103 286.28125,330.65625 C 286.96482,331.27149 287.28123,331.97071 287.28125,332.75 C 287.28123,333.57032 286.9365,334.28419 286.21875,334.90625 C 285.50096,335.52833 284.4824,335.84376 283.15625,335.84375 C 281.37889,335.84376 280.01952,335.24805 279.0625,334.03125 C 278.4746,333.2793 278.0664,332.18556 277.875,330.75 L 269.03125,331.28125 C 269.29101,334.31641 270.40625,336.84375 272.375,338.8125 C 274.34374,340.78125 277.88671,341.75 283,341.75 C 285.91209,341.75 288.33592,341.34082 290.25,340.5 C 292.16404,339.65918 293.65232,338.40821 294.71875,336.78125 C 295.78513,335.1543 296.31247,333.39649 296.3125,331.46875 C 296.31247,329.82814 295.92478,328.32618 295.125,327 C 294.64846,326.20988 293.97249,325.51226 293.15625,324.875 L 272.375,324.875 z M 314.96875,324.875 L 318.625,341.25 L 327.75,341.25 L 332.28125,324.875 L 324.78125,324.875 L 323.9375,327.96875 L 323.34375,324.875 L 314.96875,324.875 z M 333.71875,324.875 L 338.25,341.25 L 347.375,341.25 L 350.96875,324.875 L 342.625,324.875 L 342.03125,327.96875 L 341.1875,324.875 L 333.71875,324.875 z M 355.9375,324.875 C 355.91317,325.31867 355.875,325.75573 355.875,326.21875 C 355.875,329.73243 356.55664,332.66212 357.9375,335 C 359.31835,337.33789 361.12206,339.04492 363.34375,340.125 C 365.56542,341.20508 368.39061,341.75 371.78125,341.75 C 375.11717,341.75 377.88962,341.12598 380.125,339.875 C 382.36032,338.62403 384.06735,336.87403 385.25,334.625 C 386.43258,332.37599 387.03122,329.48243 387.03125,325.96875 C 387.03125,325.59074 387.01652,325.23988 387,324.875 L 377.71875,324.875 C 377.73549,325.19536 377.75,325.50104 377.75,325.84375 C 377.74998,329.20704 377.18748,331.54493 376.09375,332.84375 C 374.99998,334.14259 373.46482,334.81251 371.46875,334.8125 C 369.52733,334.81251 367.97167,334.13868 366.84375,332.8125 C 365.71581,331.48634 365.15624,329.31642 365.15625,326.28125 C 365.15625,325.79385 365.19001,325.31842 365.21875,324.875 L 355.9375,324.875 z M 392.1875,324.875 L 392.1875,341.25 L 401.53125,341.25 L 401.53125,329.03125 L 402.34375,329.03125 C 403.19139,329.03126 403.95506,329.25392 404.625,329.71875 C 405.11717,330.07423 405.68358,330.87306 406.3125,332.0625 L 411.25,341.25 L 421.75,341.25 L 417.28125,332.53125 C 417.06247,332.09376 416.61814,331.4629 415.96875,330.65625 C 415.31931,329.84962 414.84177,329.30861 414.5,329.0625 C 413.99412,328.69337 413.1699,328.3379 412.0625,327.96875 C 413.44333,327.65431 414.51951,327.25978 415.3125,326.78125 C 416.17267,326.26137 416.92594,325.61383 417.53125,324.875 L 392.1875,324.875 z M 424.84375,324.875 L 424.84375,341.25 L 438.65625,341.25 C 440.31053,341.25 442.15037,340.95313 444.1875,340.40625 C 445.67771,340.00977 447.07615,339.22754 448.375,338.03125 C 449.6738,336.83497 450.67478,335.33301 451.40625,333.5625 C 452.13766,331.792 452.49997,329.30665 452.5,326.09375 C 452.49999,325.67715 452.48907,325.28258 452.46875,324.875 L 443.125,324.875 C 443.15009,325.32149 443.1875,325.78623 443.1875,326.28125 C 443.18748,328.68751 442.93357,330.42677 442.46875,331.5 C 442.00389,332.57325 441.38279,333.31934 440.5625,333.75 C 439.74217,334.18067 438.34764,334.40626 436.40625,334.40625 L 434.125,334.40625 L 434.125,324.875 L 424.84375,324.875 z M 457.3125,324.875 L 457.3125,341.25 L 466.65625,341.25 L 466.65625,330.09375 L 471.75,330.09375 C 475.49607,330.09376 478.26853,329.24025 480.09375,327.53125 C 480.89579,326.78027 481.51915,325.88207 481.96875,324.875 L 457.3125,324.875 z M 487.84375,324.875 L 487.84375,341.25 L 497.1875,341.25 L 497.1875,329.03125 L 498,329.03125 C 498.84764,329.03126 499.61131,329.25392 500.28125,329.71875 C 500.77342,330.07423 501.30858,330.87306 501.9375,332.0625 L 506.90625,341.25 L 517.40625,341.25 L 512.9375,332.53125 C 512.71872,332.09376 512.27439,331.4629 511.625,330.65625 C 510.97556,329.84962 510.46677,329.30861 510.125,329.0625 C 509.61912,328.69337 508.82615,328.3379 507.71875,327.96875 C 509.09958,327.65431 510.17576,327.25978 510.96875,326.78125 C 511.82892,326.26137 512.55094,325.61383 513.15625,324.875 L 487.84375,324.875 z M 520.34375,324.875 L 520.34375,341.25 L 545.6875,341.25 L 545.6875,334.4375 L 529.65625,334.4375 L 529.65625,328.5 L 544.125,328.5 L 544.125,324.875 L 520.34375,324.875 z M 552.4375,324.875 C 552.57287,325.00917 552.69589,325.12178 552.84375,325.25 C 554.58007,326.76759 557.48824,327.99025 561.5625,328.90625 C 564.05076,329.45314 565.62886,330.04103 566.3125,330.65625 C 566.99607,331.27149 567.3437,331.97071 567.34375,332.75 C 567.34373,333.57032 566.99897,334.28419 566.28125,334.90625 C 565.56346,335.52833 564.54487,335.84376 563.21875,335.84375 C 561.44139,335.84376 560.05074,335.24805 559.09375,334.03125 C 558.50585,333.2793 558.12887,332.18556 557.9375,330.75 L 549.09375,331.28125 C 549.35351,334.31641 550.46872,336.84375 552.4375,338.8125 C 554.40624,340.78125 557.94918,341.75 563.0625,341.75 C 565.97459,341.75 568.39839,341.34082 570.3125,340.5 C 572.22654,339.65918 573.71479,338.40821 574.78125,336.78125 C 575.84763,335.1543 576.37494,333.39649 576.375,331.46875 C 576.37497,329.82814 575.98725,328.32618 575.1875,327 C 574.71096,326.20988 574.03499,325.51226 573.21875,324.875 L 552.4375,324.875 z M 582.78125,324.875 C 582.91662,325.00917 583.03964,325.12178 583.1875,325.25 C 584.92382,326.76759 587.83199,327.99025 591.90625,328.90625 C 594.39451,329.45314 596.00386,330.04103 596.6875,330.65625 C 597.37107,331.27149 597.68745,331.97071 597.6875,332.75 C 597.68748,333.57032 597.34272,334.28419 596.625,334.90625 C 595.90721,335.52833 594.88862,335.84376 593.5625,335.84375 C 591.78514,335.84376 590.42574,335.24805 589.46875,334.03125 C 588.88085,333.2793 588.47262,332.18556 588.28125,330.75 L 579.4375,331.28125 C 579.69726,334.31641 580.81247,336.84375 582.78125,338.8125 C 584.74999,340.78125 588.29293,341.75 593.40625,341.75 C 596.31834,341.75 598.74214,341.34082 600.65625,340.5 C 602.57029,339.65918 604.05854,338.40821 605.125,336.78125 C 606.19138,335.1543 606.71869,333.39649 606.71875,331.46875 C 606.71872,329.82814 606.331,328.32618 605.53125,327 C 605.05471,326.20988 604.37874,325.51226 603.5625,324.875 L 582.78125,324.875 z M 632.8125,324.875 L 632.8125,341.25 L 642.09375,341.25 L 642.09375,324.875 L 632.8125,324.875 z M 655.84375,324.875 L 655.84375,341.25 L 665.125,341.25 L 665.125,329.0625 L 675.28125,329.0625 L 675.28125,341.25 L 684.625,341.25 L 684.625,324.875 L 655.84375,324.875 z M 690.8125,324.875 L 690.8125,341.25 L 716.15625,341.25 L 716.15625,334.4375 L 700.125,334.4375 L 700.125,328.5 L 714.5625,328.5 L 714.5625,324.875 L 690.8125,324.875 z M 721.0625,324.875 L 721.0625,341.25 L 728.6875,341.25 L 728.6875,324.875 L 721.0625,324.875 z M 730.375,324.875 L 734.5625,341.25 L 741.40625,341.25 L 745.625,324.875 L 739.21875,324.875 L 738.03125,329.46875 L 736.84375,324.875 L 730.375,324.875 z M 747.3125,324.875 L 747.3125,341.25 L 754.90625,341.25 L 754.90625,324.875 L 747.3125,324.875 z M 760.78125,324.875 L 760.78125,341.25 L 786.125,341.25 L 786.125,334.4375 L 770.09375,334.4375 L 770.09375,328.5 L 784.5625,328.5 L 784.5625,324.875 L 760.78125,324.875 z M 792.875,324.875 C 793.007,325.00535 793.13743,325.12528 793.28125,325.25 C 795.01757,326.76759 797.92574,327.99025 802,328.90625 C 804.48826,329.45314 806.06636,330.04103 806.75,330.65625 C 807.43357,331.27149 807.7812,331.97071 807.78125,332.75 C 807.78123,333.57032 807.43647,334.28419 806.71875,334.90625 C 806.00096,335.52833 804.98237,335.84376 803.65625,335.84375 C 801.87889,335.84376 800.48824,335.24805 799.53125,334.03125 C 798.94335,333.2793 798.56637,332.18556 798.375,330.75 L 789.53125,331.28125 C 789.79101,334.31641 790.90622,336.84375 792.875,338.8125 C 794.84374,340.78125 798.38668,341.75 803.5,341.75 C 806.41209,341.75 808.83589,341.34082 810.75,340.5 C 812.66404,339.65918 814.15229,338.40821 815.21875,336.78125 C 816.28513,335.1543 816.81244,333.39649 816.8125,331.46875 C 816.81247,329.82814 816.3935,328.32618 815.59375,327 C 815.11721,326.20988 814.47249,325.51226 813.65625,324.875 L 792.875,324.875 z"
       id="text3205" />
  </g>
  <g
     inkscape:groupmode="layer"
     id="layer3"
     inkscape:label="stroke"
     sodipodi:insensitive="true">
    <text
       xml:space="preserve"
       style="font-size:42px;font-style:normal;font-variant:normal;font-weight:900;font-stretch:normal;text-align:start;line-height:125%;writing-mode:lr-tb;text-anchor:start;opacity:1;fill:none;fill-opacity:1;stroke:#8c98a1;stroke-width:2;stroke-linecap:butt;stroke-linejoin:miter;stroke-miterlimit:4;stroke-dasharray:none;stroke-opacity:1;font-family:Arial Black;-inkscape-font-specification:Arial Black Heavy"
       x="192.85715"
       y="341.23734"
       id="text3181"
       sodipodi:linespacing="125%"><tspan
         sodipodi:role="line"
         id="tspan3183"
         x="192.85715"
         y="341.23734">JG'S WORDPRESS THEMES</tspan></text>
  </g>
</svg>
